<!-- Move this to fe-ui or reusable icon within conweb if it ends up being used anywhere else and needs customizability -->
<svg width="24" height="24" viewBox="0 0 24 24" fill="none" xmlns="http://www.w3.org/2000/svg">
    <path fill-rule="evenodd" clip-rule="evenodd"
        d="M6 17.083C6.736 17.083 7.333 16.486 7.333 15.75C7.333 15.014 6.736 14.417 6 14.417C5.264 14.417 4.667 15.014 4.667 15.75C4.667 16.486 5.264 17.083 6 17.083M8.279 15.251L16.557 15.25C16.786 14.202 17.717 13.417 18.833 13.417C19.949 13.417 20.88 14.202 21.11 15.25H22V12.541C22 12.058 21.608 11.666 21.125 11.666H17.458C17.269 11.666 17.096 11.56 17.011 11.39L15.316 8H7.226L5.53 11.39C5.446 11.56 5.272 11.666 5.083 11.666H3.708C3.225 11.666 2.833 12.058 2.833 12.541V15.25H3.724C3.953 14.202 4.884 13.417 6 13.417C7.117 13.417 8.051 14.202 8.279 15.251M18.833 17.083C19.569 17.083 20.167 16.486 20.167 15.75C20.167 15.014 19.569 14.417 18.833 14.417C18.098 14.417 17.5 15.014 17.5 15.75C17.5 16.486 18.098 17.083 18.833 17.083M1.417 15.25H1.833V12.541C1.833 11.506 2.673 10.666 3.708 10.666H4.774L6.47 7.276C6.554 7.107 6.728 7 6.917 7H15.625C15.814 7 15.987 7.107 16.072 7.276L17.768 10.666H21.125C22.16 10.666 23 11.506 23 12.541V15.75C23 16.026 22.776 16.25 22.5 16.25H21.11C20.88 17.298 19.949 18.083 18.833 18.083C17.717 18.083 16.786 17.298 16.557 16.25H8.279C8.051 17.298 7.116 18.083 6 18.083C4.884 18.083 3.953 17.298 3.724 16.25H1.417C1.141 16.25 0.917 16.026 0.917 15.75C0.917 15.474 1.141 15.25 1.417 15.25M13.3335 8.8335H14.2505C14.4395 8.8335 14.6125 8.9405 14.6975 9.1095L15.6135 10.9425C15.7375 11.1895 15.6375 11.4905 15.3905 11.6135C15.1435 11.7375 14.8425 11.6375 14.7195 11.3905L13.9405 9.8335H13.3335C13.0575 9.8335 12.8335 9.6095 12.8335 9.3335C12.8335 9.0575 13.0575 8.8335 13.3335 8.8335"
        fill="#5c7995" />
</svg>