<svg width="24" height="24" viewBox="0 0 24 24" fill="none" xmlns="http://www.w3.org/2000/svg">
    <path fill-rule="evenodd" clip-rule="evenodd"
        d="M21.0833 12C21.0833 6.9828 17.0172 2.91666 12 2.91666C6.98335 2.91666 2.91666 6.98309 2.91666 12C2.91666 17.0163 6.98364 21.0833 12 21.0833C17.0169 21.0833 21.0833 17.0166 21.0833 12ZM22.0833 12C22.0833 17.5689 17.5692 22.0833 12 22.0833C6.43135 22.0833 1.91666 17.5686 1.91666 12C1.91666 6.43079 6.43107 1.91666 12 1.91666C17.5695 1.91666 22.0833 6.43051 22.0833 12ZM10.7173 10.0355C11.6854 11.1977 12.803 12.3153 13.9652 13.2834L14.1237 13.1254C14.8385 12.4095 15.9675 12.3501 16.6478 13.0293L17.9389 14.3204C18.6178 15.0004 18.5591 16.1292 17.8434 16.8449L17.0563 17.6312C16.2162 18.4724 14.9402 18.6661 13.9984 18.0716C10.7661 16.0332 7.96831 13.2351 5.92866 10.0018C5.33444 9.05826 5.52727 7.78519 6.36819 6.94427L7.15569 6.15677C7.87161 5.44086 9.00186 5.38178 9.67935 6.06166L10.9711 7.3526C11.6509 8.03234 11.5912 9.16113 10.8755 9.87704L10.7173 10.0355ZM10.1679 9.17041C10.5093 8.82901 10.5356 8.3313 10.2641 8.05982L8.97174 6.76826C8.70158 6.49715 8.2035 6.52318 7.8628 6.86388L7.0753 7.65138C6.55382 8.17286 6.43842 8.93471 6.77464 9.46856C8.73457 12.5755 11.4257 15.2669 14.532 17.2258C15.0642 17.5618 15.8282 17.4458 16.3492 16.9241L17.1365 16.1376C17.4771 15.7971 17.5029 15.2991 17.2315 15.0272L15.941 13.7367C15.6691 13.4653 15.1714 13.4914 14.8305 13.8328L14.3514 14.3103C14.171 14.49 13.8844 14.5055 13.6858 14.3463C12.2272 13.1776 10.8228 11.7733 9.65406 10.3146C9.49476 10.1158 9.5104 9.82904 9.69039 9.64875L10.1679 9.17041Z"
        fill="#5C7996" />
    <mask id="mask0_3147_5349" style="mask-type:alpha" maskUnits="userSpaceOnUse" x="1" y="1" width="22" height="22">
        <path fill-rule="evenodd" clip-rule="evenodd"
            d="M21.0833 12C21.0833 6.9828 17.0172 2.91666 12 2.91666C6.98335 2.91666 2.91666 6.98309 2.91666 12C2.91666 17.0163 6.98364 21.0833 12 21.0833C17.0169 21.0833 21.0833 17.0166 21.0833 12ZM22.0833 12C22.0833 17.5689 17.5692 22.0833 12 22.0833C6.43135 22.0833 1.91666 17.5686 1.91666 12C1.91666 6.43079 6.43107 1.91666 12 1.91666C17.5695 1.91666 22.0833 6.43051 22.0833 12ZM10.7173 10.0355C11.6854 11.1977 12.803 12.3153 13.9652 13.2834L14.1237 13.1254C14.8385 12.4095 15.9675 12.3501 16.6478 13.0293L17.9389 14.3204C18.6178 15.0004 18.5591 16.1292 17.8434 16.8449L17.0563 17.6312C16.2162 18.4724 14.9402 18.6661 13.9984 18.0716C10.7661 16.0332 7.96831 13.2351 5.92866 10.0018C5.33444 9.05826 5.52727 7.78519 6.36819 6.94427L7.15569 6.15677C7.87161 5.44086 9.00186 5.38178 9.67935 6.06166L10.9711 7.3526C11.6509 8.03234 11.5912 9.16113 10.8755 9.87704L10.7173 10.0355ZM10.1679 9.17041C10.5093 8.82901 10.5356 8.3313 10.2641 8.05982L8.97174 6.76826C8.70158 6.49715 8.2035 6.52318 7.8628 6.86388L7.0753 7.65138C6.55382 8.17286 6.43842 8.93471 6.77464 9.46856C8.73457 12.5755 11.4257 15.2669 14.532 17.2258C15.0642 17.5618 15.8282 17.4458 16.3492 16.9241L17.1365 16.1376C17.4771 15.7971 17.5029 15.2991 17.2315 15.0272L15.941 13.7367C15.6691 13.4653 15.1714 13.4914 14.8305 13.8328L14.3514 14.3103C14.171 14.49 13.8844 14.5055 13.6858 14.3463C12.2272 13.1776 10.8228 11.7733 9.65406 10.3146C9.49476 10.1158 9.5104 9.82904 9.69039 9.64875L10.1679 9.17041Z"
            fill="white" />
    </mask>
    <g mask="url(#mask0_3147_5349)">
    </g>
</svg>